<?xml version="1.0" encoding="UTF-8" standalone="no"?>
<!DOCTYPE svg PUBLIC "-//W3C//DTD SVG 1.1//EN" "http://www.w3.org/Graphics/SVG/1.1/DTD/svg11.dtd">
<svg version="1.1" xmlns="http://www.w3.org/2000/svg" xmlns:xlink="http://www.w3.org/1999/xlink" preserveAspectRatio="xMidYMid meet" viewBox="0 0 85 53" width="85" height="53"><defs><path d="M4.99 53.03C4.9 53.03 4.22 53.04 4.13 53.04C1.85 53.03 0 51.19 0 48.91C0 44.43 0 8.67 0 4.2C0 1.91 1.85 0.06 4.13 0.06C8.83 0.06 46.41 0.06 51.1 0.06C53.38 0.06 55.23 2.01 55.23 4.29C55.23 8.75 55.23 44.44 55.23 48.9C55.22 51.18 53.38 53.03 51.1 53.03C48.99 53.03 32.08 53.03 29.96 53.03C28.87 53.02 26.72 52.34 26.24 49.91C25.17 45.95 21.48 43.12 17.29 43.12C13 43.12 9.19 46.16 8.24 50.35C8.01 52.16 6.51 53.04 5.14 53.04C5.09 53.04 5.04 53.04 4.99 53.03ZM3.04 4.2C3.04 8.67 3.04 44.43 3.04 48.9C3.04 49.5 3.53 49.99 4.13 49.99C4.23 49.99 5.03 49.99 5.13 49.99C5.14 49.94 5.26 49.72 5.27 49.67C6.53 44.11 11.59 40.08 17.29 40.08C22.87 40.08 27.75 43.83 29.2 49.21C29.35 49.95 29.88 49.99 29.99 49.99C32.1 49.99 48.99 49.99 51.1 49.99C51.69 49.99 52.18 49.5 52.18 48.91C52.18 44.44 52.18 8.75 52.18 4.29C52.18 3.7 51.7 3.21 51.1 3.21C47.97 3.21 32.31 3.21 4.13 3.21C3.4 3.47 3.04 3.8 3.04 4.2ZM84.64 31.71C84.48 30.84 83.55 29.07 83.55 29.07C82.82 27.71 76.98 16.84 76.26 15.48C75.3 13.96 73.14 12.77 71.7 12.77C70.61 12.77 61.88 12.77 60.79 12.77C59.35 12.77 58.18 13.94 58.18 15.38C58.18 18.73 58.18 45.55 58.18 48.9C58.18 50.34 59.35 51.51 60.79 51.51C60.85 51.51 61.36 51.51 61.43 51.51C61.43 51.51 62.38 51.39 62.73 50.2C63.72 46.27 67.25 43.34 71.48 43.34C75.63 43.34 79.09 46.15 80.16 49.95C80.6 51.56 82.39 51.51 82.39 51.51C83.83 51.51 85 50.34 85 48.9C85 47.97 84.97 43.27 84.93 34.83C84.87 33.43 84.77 32.39 84.64 31.71ZM65.31 31.32C64.21 31.31 63.33 30.42 63.32 29.33C63.32 28.31 63.32 20.16 63.32 19.14C63.32 18.05 64.22 17.15 65.31 17.15C65.75 17.15 69.24 17.15 69.68 17.15C72.16 17.15 73.79 19.16 74.31 20.13C74.81 21.07 78.87 28.62 79.37 29.57C79.89 30.53 79.42 31.32 78.33 31.32C75.72 31.32 66.61 31.32 65.31 31.32Z" id="a4tTbky36b"></path><path d="M2.37 3.55C2.37 8.38 2.37 47.03 2.37 51.87C2.37 52.51 2.87 53.04 3.48 53.04C3.59 53.04 4.41 53.04 4.52 53.04C4.52 52.99 4.64 52.75 4.65 52.7C5.95 46.69 11.15 42.33 17.01 42.33C22.74 42.33 27.75 46.38 29.24 52.2C29.4 52.99 29.94 53.04 30.05 53.04C32.22 53.04 49.57 53.04 51.74 53.04C52.36 53.04 52.86 52.51 52.86 51.87C52.86 47.05 52.86 8.48 52.86 3.66C52.86 3.01 52.36 2.48 51.74 2.48C48.53 2.48 32.44 2.48 3.48 2.48C2.74 2.76 2.37 3.12 2.37 3.55Z" id="a1XkVD39x4"></path><path d="M20 28.88L20.02 29.01L20.05 29.14L20.1 29.26L20.16 29.38L20.22 29.49L20.3 29.6L20.39 29.7L20.49 29.79L20.59 29.88L20.71 29.95L20.83 30.02L20.96 30.08L21.09 30.13L21.23 30.17L21.37 30.2L21.52 30.22L21.68 30.22L21.83 30.22L21.98 30.2L22.12 30.17L22.26 30.13L22.4 30.08L22.53 30.02L22.65 29.95L22.76 29.88L22.87 29.79L22.97 29.7L23.05 29.6L23.13 29.49L23.2 29.38L23.26 29.26L23.3 29.14L23.34 29.01L23.36 28.88L23.36 28.74L23.36 26.94L31.86 26.94L31.86 28.74L31.82 29.56L31.7 30.35L31.5 31.12L31.22 31.86L30.88 32.58L30.47 33.26L30 33.9L29.46 34.51L28.88 35.07L28.24 35.59L27.55 36.05L26.81 36.47L26.04 36.83L25.23 37.13L24.38 37.37L23.51 37.55L22.6 37.66L21.68 37.69L20.75 37.66L19.85 37.55L18.97 37.37L18.13 37.13L17.32 36.83L16.54 36.47L15.81 36.05L15.12 35.59L14.48 35.07L13.89 34.51L13.36 33.9L12.89 33.26L12.48 32.58L12.13 31.86L11.86 31.12L11.66 30.35L11.53 29.56L11.49 28.74L11.49 9.36L19.99 9.36L19.99 28.74L20 28.88ZM35.37 9.51L36.25 9.68L37.1 9.92L37.91 10.23L38.68 10.59L39.42 11L40.1 11.47L40.74 11.99L41.33 12.55L41.87 13.16L42.34 13.8L42.75 14.48L43.09 15.19L43.37 15.94L43.57 16.71L43.69 17.5L43.73 18.31L43.73 37.69L35.23 37.69L35.23 18.31L35.22 18.18L35.2 18.05L35.17 17.92L35.13 17.8L35.07 17.68L35 17.57L34.92 17.46L34.83 17.36L34.74 17.27L34.63 17.18L34.52 17.1L34.4 17.04L34.27 16.98L34.13 16.93L33.99 16.89L33.85 16.86L33.7 16.84L33.55 16.83L33.39 16.84L33.24 16.86L33.1 16.89L32.96 16.93L32.83 16.98L32.7 17.04L32.58 17.1L32.46 17.18L32.36 17.27L32.26 17.36L32.17 17.46L32.09 17.57L32.02 17.68L31.97 17.8L31.92 17.92L31.89 18.05L31.87 18.18L31.86 18.31L31.86 20.12L23.36 20.12L23.36 18.31L23.4 17.5L23.53 16.71L23.73 15.94L24 15.19L24.34 14.48L24.75 13.8L25.23 13.16L25.76 12.55L26.35 11.99L26.99 11.47L27.68 11L28.41 10.59L29.18 10.23L30 9.92L30.84 9.68L31.72 9.51L32.62 9.4L33.55 9.36L34.47 9.4L35.37 9.51ZM21.88 25.28L21.88 21.78L33.34 21.78L33.34 25.28L21.88 25.28Z" id="aDrIRSs6v"></path></defs><g><g><g><use xlink:href="#a4tTbky36b" opacity="1" fill="#003b6b" fill-opacity="1"></use><g><use xlink:href="#a4tTbky36b" opacity="1" fill-opacity="0" stroke="#000000" stroke-width="1" stroke-opacity="0"></use></g></g><g><use xlink:href="#a1XkVD39x4" opacity="1" fill="#003b6b" fill-opacity="1"></use><g><use xlink:href="#a1XkVD39x4" opacity="1" fill-opacity="0" stroke="#000000" stroke-width="1" stroke-opacity="0"></use></g></g><g><use xlink:href="#aDrIRSs6v" opacity="1" fill="#228ce2" fill-opacity="1"></use><g><use xlink:href="#aDrIRSs6v" opacity="1" fill-opacity="0" stroke="#000000" stroke-width="1" stroke-opacity="0"></use></g></g></g></g></svg>